<?xml version="1.0" standalone="no"?>
<!DOCTYPE svg PUBLIC "-//W3C//DTD SVG 20010904//EN"
 "http://www.w3.org/TR/2001/REC-SVG-20010904/DTD/svg10.dtd">
<svg version="1.0" xmlns="http://www.w3.org/2000/svg"
 width="506.000000pt" height="682.000000pt" viewBox="0 0 506.000000 682.000000"
 preserveAspectRatio="xMidYMid meet">

<g transform="translate(0.000000,682.000000) scale(0.100000,-0.100000)"
fill="#000000" stroke="none">
<path d="M1775 6794 c-217 -29 -447 -103 -645 -206 -625 -325 -1015 -887
-1110 -1601 -15 -119 -12 -429 6 -559 63 -454 254 -853 558 -1167 175 -180
334 -295 562 -407 410 -201 870 -262 1279 -169 146 33 208 54 409 137 92 38
173 67 180 65 13 -5 166 -270 166 -287 0 -7 -20 -35 -45 -62 -56 -62 -80 -135
-66 -197 11 -51 66 -149 359 -636 558 -926 954 -1556 1013 -1610 70 -63 120
-80 229 -80 86 0 101 4 160 32 82 40 152 110 193 193 29 59 32 73 32 161 l0
96 -49 79 c-26 43 -264 439 -528 879 -587 977 -742 1228 -789 1275 -54 56
-100 60 -233 23 -70 -20 -62 -27 -162 139 -47 77 -64 115 -60 131 3 12 40 51
83 87 445 374 659 744 750 1295 25 151 25 516 0 660 -40 230 -98 408 -197 605
-307 611 -902 1036 -1578 1125 -137 18 -381 18 -517 -1z m492 -319 c654 -93
1206 -555 1418 -1187 206 -617 58 -1306 -381 -1767 -160 -168 -316 -282 -519
-381 -522 -253 -1124 -232 -1602 56 -487 294 -783 755 -854 1334 -18 146 -6
406 26 560 84 408 293 759 600 1007 148 120 390 252 572 312 84 28 257 65 343
74 90 10 305 5 397 -8z"/>
</g>
</svg>
